<svg xmlns="http://www.w3.org/2000/svg" viewBox="-10.00 16.28 166.83 166.83" fill="#0fd03b">
  <g transform="translate(-148.17418,-109.33)">
    <path d="m 188.72,178.12 c 4.13,0 7.49,3.36 7.49,7.49 0,4.13 -3.36,7.49 -7.49,7.49 -4.13,0 -7.49,-3.36 -7.49,-7.49 0,-4.13 3.36,-7.49 7.49,-7.49 m 0,-9.7 c -9.5,0 -17.2,7.7 -17.2,17.2 0,9.5 7.7,17.2 17.2,17.2 9.5,0 17.2,-7.7 17.2,-17.2 0,-9.5 -7.7,-17.2 -17.2,-17.2 z"/>
    <path d="m 271.7,148.91 c -18.34,-8.57 -39.14,-2.3 -50.16,13.01 -7.63,-10.58 -19.89,-16.88 -32.83,-16.88 -5.58,0 -11.27,1.16 -16.76,3.63 -17.25,7.78 -26.94,27.21 -22.84,45.68 1.77,7.99 5.73,14.7 10.97,19.93 L 216.7,271 c 2.69,2.69 7.05,2.69 9.74,0 l 56.62,-56.72 c 5.88,-5.86 10.14,-13.59 11.52,-22.89 2.59,-17.46 -6.89,-35.02 -22.88,-42.49 z m -104.76,58.5 c -3.25,-3.24 -5.67,-7.02 -7.21,-11.25 -2.82,-7.74 -2.45,-16.12 1.03,-23.59 3.48,-7.47 9.67,-13.13 17.41,-15.95 3.41,-1.24 6.96,-1.87 10.55,-1.87 11.75,0 22.38,6.79 27.55,17.14 -2.06,5.72 -2.71,11.6 -2.21,17.28 l 6.21,71.66 z m 101.9,-19.59 c -1.68,10.31 -13,15.59 -21.99,10.25 -4.99,-2.97 -7.78,-8.94 -6.84,-14.67 1.68,-10.31 13.01,-15.59 21.99,-10.25 4.99,2.97 7.78,8.95 6.84,14.67 z"/>
  </g>
</svg>
